<svg width="24" height="29" viewBox="0 0 24 29" fill="none" xmlns="http://www.w3.org/2000/svg">
<path d="M12 5.74408C7 5.74408 2.73 9.40034 1 14.5614C2.73 19.7225 7 23.3788 12 23.3788C17 23.3788 21.27 19.7225 23 14.5614C21.27 9.40034 17 5.74408 12 5.74408ZM12 20.4397C9.24 20.4397 7 17.8062 7 14.5614C7 11.3166 9.24 8.6832 12 8.6832C14.76 8.6832 17 11.3166 17 14.5614C17 17.8062 14.76 20.4397 12 20.4397ZM12 11.0345C10.34 11.0345 9 12.6099 9 14.5614C9 16.513 10.34 18.0884 12 18.0884C13.66 18.0884 15 16.513 15 14.5614C15 12.6099 13.66 11.0345 12 11.0345Z" fill="black" fill-opacity="0.54"/>
</svg>
